<?xml version="1.0" encoding="UTF-8" standalone="no"?>
<!DOCTYPE svg PUBLIC "-//W3C//DTD SVG 1.1//EN" "http://www.w3.org/Graphics/SVG/1.1/DTD/svg11.dtd">
<svg width="100%" height="100%" viewBox="0 0 3508 2481" version="1.1" xmlns="http://www.w3.org/2000/svg" xmlns:xlink="http://www.w3.org/1999/xlink" xml:space="preserve" xmlns:serif="http://www.serif.com/" style="fill-rule:evenodd;clip-rule:evenodd;stroke-linejoin:round;stroke-miterlimit:2;">
    <g transform="matrix(1,0,0,1,-114.722,574.568)">
        <g id="Layer63">
            <path d="M1854.74,862.5L1955.77,804.167L1970.21,804.167L2013.51,829.167L2013.51,837.5L1912.47,895.833L1898.04,895.833L1854.74,870.833L1854.74,862.5Z" style="fill:rgb(219,219,219);"/>
            <path d="M1854.74,870.833L1898.04,895.833L1898.04,945.833L1854.74,920.833L1854.74,870.833Z" style="fill:rgb(184,184,184);"/>
            <g transform="matrix(1,0,0,1,57.735,33.3333)">
                <path d="M1854.74,862.5L1955.77,804.167L1955.77,854.167L1854.74,912.5L1854.74,862.5Z" style="fill:rgb(161,161,161);"/>
            </g>
            <rect x="1898.04" y="895.833" width="14.434" height="50" style="fill:rgb(182,182,182);"/>
            <path d="M2013.51,845.833L1912.47,904.167L1912.47,912.5L2013.51,854.167L2013.51,845.833Z" style="fill:rgb(134,57,59);"/>
            <g transform="matrix(1,0,0,1,-1.25053e-12,25)">
                <path d="M2013.51,845.833L1912.47,904.167L1912.47,912.5L2013.51,854.167L2013.51,845.833Z" style="fill:rgb(134,57,59);"/>
            </g>
            <rect x="1898.04" y="904.167" width="14.434" height="8.333" style="fill:rgb(161,76,78);"/>
            <g transform="matrix(1,0,0,1,-1.25053e-12,25)">
                <rect x="1898.04" y="904.167" width="14.434" height="8.333" style="fill:rgb(161,76,78);"/>
            </g>
            <path d="M1898.04,904.167L1854.74,879.167L1854.74,887.5L1898.04,912.5L1898.04,904.167Z" style="fill:rgb(175,86,88);"/>
            <g transform="matrix(1,0,0,1,-1.25053e-12,25)">
                <path d="M1898.04,904.167L1854.74,879.167L1854.74,887.5L1898.04,912.5L1898.04,904.167Z" style="fill:rgb(175,86,88);"/>
            </g>
            <g transform="matrix(1,0,0,1,-7.21688,4.16667)">
                <path d="M1926.91,904.167L1926.91,920.833L1941.34,912.5L1941.34,895.833L1926.91,904.167Z" style="fill:rgb(105,177,179);"/>
            </g>
            <g transform="matrix(1,0,0,1,14.4338,-8.33333)">
                <path d="M1926.91,904.167L1926.91,920.833L1941.34,912.5L1941.34,895.833L1926.91,904.167Z" style="fill:rgb(105,177,179);"/>
            </g>
            <g transform="matrix(1,0,0,1,43.3013,-25)">
                <path d="M1926.91,904.167L1926.91,920.833L1941.34,912.5L1941.34,895.833L1926.91,904.167Z" style="fill:rgb(105,177,179);"/>
            </g>
            <g transform="matrix(1,0,0,1,64.9519,-37.5)">
                <path d="M1926.91,904.167L1926.91,920.833L1941.34,912.5L1941.34,895.833L1926.91,904.167Z" style="fill:rgb(105,177,179);"/>
            </g>
            <g transform="matrix(1,0,0,1,-101.036,58.3333)">
                <path d="M2064.03,758.333L2078.46,766.667L2006.29,808.333L1991.86,800L2064.03,758.333Z" style="fill:rgb(175,86,88);"/>
            </g>
            <g transform="matrix(1,0,0,1,-101.036,58.3333)">
                <path d="M1991.86,800L1991.86,808.333L2006.29,816.667L2078.46,775L2078.46,766.667L2006.29,808.333L1991.86,800Z" style="fill:rgb(134,57,59);"/>
            </g>
        </g>
        <g id="Layer631" serif:id="Layer63" transform="matrix(1,0,0,1,-129.904,75)">
            <path d="M1854.74,862.5L1955.77,804.167L1970.21,804.167L2013.51,829.167L2013.51,837.5L1912.47,895.833L1898.04,895.833L1854.74,870.833L1854.74,862.5Z" style="fill:rgb(219,219,219);"/>
            <path d="M1854.74,870.833L1898.04,895.833L1898.04,945.833L1854.74,920.833L1854.74,870.833Z" style="fill:rgb(184,184,184);"/>
            <g transform="matrix(1,0,0,1,57.735,33.3333)">
                <path d="M1854.74,862.5L1955.77,804.167L1955.77,854.167L1854.74,912.5L1854.74,862.5Z" style="fill:rgb(161,161,161);"/>
            </g>
            <rect x="1898.04" y="895.833" width="14.434" height="50" style="fill:rgb(182,182,182);"/>
            <path d="M2013.51,845.833L1912.47,904.167L1912.47,912.5L2013.51,854.167L2013.51,845.833Z" style="fill:rgb(134,57,59);"/>
            <g transform="matrix(1,0,0,1,-1.25053e-12,25)">
                <path d="M2013.51,845.833L1912.47,904.167L1912.47,912.5L2013.51,854.167L2013.51,845.833Z" style="fill:rgb(134,57,59);"/>
            </g>
            <rect x="1898.04" y="904.167" width="14.434" height="8.333" style="fill:rgb(161,76,78);"/>
            <g transform="matrix(1,0,0,1,-1.25053e-12,25)">
                <rect x="1898.04" y="904.167" width="14.434" height="8.333" style="fill:rgb(161,76,78);"/>
            </g>
            <path d="M1898.04,904.167L1854.74,879.167L1854.74,887.5L1898.04,912.5L1898.04,904.167Z" style="fill:rgb(175,86,88);"/>
            <g transform="matrix(1,0,0,1,-1.25053e-12,25)">
                <path d="M1898.04,904.167L1854.74,879.167L1854.74,887.5L1898.04,912.5L1898.04,904.167Z" style="fill:rgb(175,86,88);"/>
            </g>
            <g transform="matrix(1,0,0,1,-7.21688,4.16667)">
                <path d="M1926.91,904.167L1926.91,920.833L1941.34,912.5L1941.34,895.833L1926.91,904.167Z" style="fill:rgb(105,177,179);"/>
            </g>
            <g transform="matrix(1,0,0,1,14.4338,-8.33333)">
                <path d="M1926.91,904.167L1926.91,920.833L1941.34,912.5L1941.34,895.833L1926.91,904.167Z" style="fill:rgb(105,177,179);"/>
            </g>
            <g transform="matrix(1,0,0,1,43.3013,-25)">
                <path d="M1926.91,904.167L1926.91,920.833L1941.34,912.5L1941.34,895.833L1926.91,904.167Z" style="fill:rgb(105,177,179);"/>
            </g>
            <g transform="matrix(1,0,0,1,64.9519,-37.5)">
                <path d="M1926.91,904.167L1926.91,920.833L1941.34,912.5L1941.34,895.833L1926.91,904.167Z" style="fill:rgb(105,177,179);"/>
            </g>
            <g transform="matrix(1,0,0,1,-101.036,58.3333)">
                <path d="M2064.03,758.333L2078.46,766.667L2006.29,808.333L1991.86,800L2064.03,758.333Z" style="fill:rgb(175,86,88);"/>
            </g>
            <g transform="matrix(1,0,0,1,-101.036,58.3333)">
                <path d="M1991.86,800L1991.86,808.333L2006.29,816.667L2078.46,775L2078.46,766.667L2006.29,808.333L1991.86,800Z" style="fill:rgb(134,57,59);"/>
            </g>
        </g>
        <g id="Layer632" serif:id="Layer63" transform="matrix(1,0,0,1,-259.808,150)">
            <path d="M1854.74,862.5L1955.77,804.167L1970.21,804.167L2013.51,829.167L2013.51,837.5L1912.47,895.833L1898.04,895.833L1854.74,870.833L1854.74,862.5Z" style="fill:rgb(219,219,219);"/>
            <path d="M1854.74,870.833L1898.04,895.833L1898.04,945.833L1854.74,920.833L1854.74,870.833Z" style="fill:rgb(184,184,184);"/>
            <g transform="matrix(1,0,0,1,57.735,33.3333)">
                <path d="M1854.74,862.5L1955.77,804.167L1955.77,854.167L1854.74,912.5L1854.74,862.5Z" style="fill:rgb(161,161,161);"/>
            </g>
            <rect x="1898.04" y="895.833" width="14.434" height="50" style="fill:rgb(182,182,182);"/>
            <path d="M2013.51,845.833L1912.47,904.167L1912.47,912.5L2013.51,854.167L2013.51,845.833Z" style="fill:rgb(134,57,59);"/>
            <g transform="matrix(1,0,0,1,-1.25053e-12,25)">
                <path d="M2013.51,845.833L1912.47,904.167L1912.47,912.5L2013.51,854.167L2013.51,845.833Z" style="fill:rgb(134,57,59);"/>
            </g>
            <rect x="1898.04" y="904.167" width="14.434" height="8.333" style="fill:rgb(161,76,78);"/>
            <g transform="matrix(1,0,0,1,-1.25053e-12,25)">
                <rect x="1898.04" y="904.167" width="14.434" height="8.333" style="fill:rgb(161,76,78);"/>
            </g>
            <path d="M1898.04,904.167L1854.74,879.167L1854.74,887.5L1898.04,912.5L1898.04,904.167Z" style="fill:rgb(175,86,88);"/>
            <g transform="matrix(1,0,0,1,-1.25053e-12,25)">
                <path d="M1898.04,904.167L1854.74,879.167L1854.74,887.5L1898.04,912.5L1898.04,904.167Z" style="fill:rgb(175,86,88);"/>
            </g>
            <g transform="matrix(1,0,0,1,-7.21688,4.16667)">
                <path d="M1926.91,904.167L1926.91,920.833L1941.34,912.5L1941.34,895.833L1926.91,904.167Z" style="fill:rgb(105,177,179);"/>
            </g>
            <g transform="matrix(1,0,0,1,14.4338,-8.33333)">
                <path d="M1926.91,904.167L1926.91,920.833L1941.34,912.5L1941.34,895.833L1926.91,904.167Z" style="fill:rgb(105,177,179);"/>
            </g>
            <g transform="matrix(1,0,0,1,43.3013,-25)">
                <path d="M1926.91,904.167L1926.91,920.833L1941.34,912.5L1941.34,895.833L1926.91,904.167Z" style="fill:rgb(105,177,179);"/>
            </g>
            <g transform="matrix(1,0,0,1,64.9519,-37.5)">
                <path d="M1926.91,904.167L1926.91,920.833L1941.34,912.5L1941.34,895.833L1926.91,904.167Z" style="fill:rgb(105,177,179);"/>
            </g>
            <g transform="matrix(1,0,0,1,-101.036,58.3333)">
                <path d="M2064.03,758.333L2078.46,766.667L2006.29,808.333L1991.86,800L2064.03,758.333Z" style="fill:rgb(175,86,88);"/>
            </g>
            <g transform="matrix(1,0,0,1,-101.036,58.3333)">
                <path d="M1991.86,800L1991.86,808.333L2006.29,816.667L2078.46,775L2078.46,766.667L2006.29,808.333L1991.86,800Z" style="fill:rgb(134,57,59);"/>
            </g>
        </g>
        <g id="Layer633" serif:id="Layer63" transform="matrix(1,0,0,1,-389.711,225)">
            <path d="M1854.74,862.5L1955.77,804.167L1970.21,804.167L2013.51,829.167L2013.51,837.5L1912.47,895.833L1898.04,895.833L1854.74,870.833L1854.74,862.5Z" style="fill:rgb(219,219,219);"/>
            <path d="M1854.74,870.833L1898.04,895.833L1898.04,945.833L1854.74,920.833L1854.74,870.833Z" style="fill:rgb(184,184,184);"/>
            <g transform="matrix(1,0,0,1,57.735,33.3333)">
                <path d="M1854.74,862.5L1955.77,804.167L1955.77,854.167L1854.74,912.5L1854.74,862.5Z" style="fill:rgb(161,161,161);"/>
            </g>
            <rect x="1898.04" y="895.833" width="14.434" height="50" style="fill:rgb(182,182,182);"/>
            <path d="M2013.51,845.833L1912.47,904.167L1912.47,912.5L2013.51,854.167L2013.51,845.833Z" style="fill:rgb(134,57,59);"/>
            <g transform="matrix(1,0,0,1,-1.25053e-12,25)">
                <path d="M2013.51,845.833L1912.47,904.167L1912.47,912.5L2013.51,854.167L2013.51,845.833Z" style="fill:rgb(134,57,59);"/>
            </g>
            <rect x="1898.04" y="904.167" width="14.434" height="8.333" style="fill:rgb(161,76,78);"/>
            <g transform="matrix(1,0,0,1,-1.25053e-12,25)">
                <rect x="1898.04" y="904.167" width="14.434" height="8.333" style="fill:rgb(161,76,78);"/>
            </g>
            <path d="M1898.04,904.167L1854.74,879.167L1854.74,887.5L1898.04,912.5L1898.04,904.167Z" style="fill:rgb(175,86,88);"/>
            <g transform="matrix(1,0,0,1,-1.25053e-12,25)">
                <path d="M1898.04,904.167L1854.74,879.167L1854.74,887.5L1898.04,912.5L1898.04,904.167Z" style="fill:rgb(175,86,88);"/>
            </g>
            <g transform="matrix(1,0,0,1,-7.21688,4.16667)">
                <path d="M1926.91,904.167L1926.91,920.833L1941.34,912.5L1941.34,895.833L1926.91,904.167Z" style="fill:rgb(105,177,179);"/>
            </g>
            <g transform="matrix(1,0,0,1,14.4338,-8.33333)">
                <path d="M1926.91,904.167L1926.91,920.833L1941.34,912.5L1941.34,895.833L1926.91,904.167Z" style="fill:rgb(105,177,179);"/>
            </g>
            <g transform="matrix(1,0,0,1,43.3013,-25)">
                <path d="M1926.91,904.167L1926.91,920.833L1941.34,912.5L1941.34,895.833L1926.91,904.167Z" style="fill:rgb(105,177,179);"/>
            </g>
            <g transform="matrix(1,0,0,1,64.9519,-37.5)">
                <path d="M1926.91,904.167L1926.91,920.833L1941.34,912.5L1941.34,895.833L1926.91,904.167Z" style="fill:rgb(105,177,179);"/>
            </g>
            <g transform="matrix(1,0,0,1,-101.036,58.3333)">
                <path d="M2064.03,758.333L2078.46,766.667L2006.29,808.333L1991.86,800L2064.03,758.333Z" style="fill:rgb(175,86,88);"/>
            </g>
            <g transform="matrix(1,0,0,1,-101.036,58.3333)">
                <path d="M1991.86,800L1991.86,808.333L2006.29,816.667L2078.46,775L2078.46,766.667L2006.29,808.333L1991.86,800Z" style="fill:rgb(134,57,59);"/>
            </g>
        </g>
    </g>
</svg>
